<svg width="352" height="352" viewBox="0 0 352 352" fill="none" xmlns="http://www.w3.org/2000/svg">
<g filter="url(#filter0_d_108_662)">
<g clip-path="url(#clip0_108_662)">
<rect x="13" y="8" width="323" height="323" rx="6" fill="#FB7225"/>
<path fill-rule="evenodd" clip-rule="evenodd" d="M112.705 164.906C188.594 179.377 280.423 145.452 332.451 202.563C389.071 264.714 391.32 362.718 365.929 442.867C341.073 521.327 277.026 581.02 201.906 614.644C132.609 645.66 54.2305 640.101 -17.1902 614.348C-83.6989 590.367 -137.981 542.767 -170.925 480.211C-203.203 418.92 -211.933 347.962 -192.493 281.475C-173.114 215.194 -131.96 150.944 -67.4489 126.304C-7.80686 103.524 49.991 152.947 112.705 164.906Z" fill="#F66A1C"/>
<path fill-rule="evenodd" clip-rule="evenodd" d="M169.732 218.071C244.862 200.07 314.629 131.397 385.534 162.074C462.696 195.458 505.031 283.876 514.829 367.378C524.421 449.119 490.572 529.863 435.911 591.393C385.489 648.152 311.753 675.301 236.059 681.182C165.571 686.659 96.5207 665.578 40.7753 622.094C-13.8433 579.488 -50.9685 518.39 -60.5763 449.788C-70.1543 381.399 -59.0474 305.912 -10.3664 256.933C34.6404 211.651 107.645 232.947 169.732 218.071Z" fill="#F16517"/>
<path d="M193.25 169.875H185.438C184.609 169.874 183.815 169.545 183.229 168.959C182.643 168.373 182.313 167.579 182.312 166.75V158.938C182.313 158.109 182.643 157.315 183.229 156.729C183.815 156.143 184.609 155.813 185.438 155.812H193.25C194.079 155.813 194.873 156.143 195.459 156.729C196.045 157.315 196.374 158.109 196.375 158.938V166.75C196.374 167.579 196.045 168.373 195.459 168.959C194.873 169.545 194.079 169.874 193.25 169.875ZM185.438 158.938V166.75H193.25V158.938H185.438ZM174.5 158.938H166.688C165.859 158.937 165.065 158.607 164.479 158.021C163.893 157.435 163.563 156.641 163.562 155.812V140.188C163.563 139.359 163.893 138.565 164.479 137.979C165.065 137.393 165.859 137.063 166.688 137.062H182.312C183.141 137.063 183.935 137.393 184.521 137.979C185.107 138.565 185.437 139.359 185.438 140.188V148H182.312V140.188H166.688V155.812H174.5V158.938Z" fill="white"/>
<path d="M174.5 169.875H155.75C154.921 169.874 154.127 169.545 153.541 168.959C152.955 168.373 152.626 167.579 152.625 166.75V129.25C152.626 128.421 152.955 127.627 153.541 127.041C154.127 126.455 154.921 126.126 155.75 126.125H193.25C194.079 126.126 194.873 126.455 195.459 127.041C196.045 127.627 196.374 128.421 196.375 129.25V148H193.25V129.25H155.75V166.75H174.5V169.875Z" fill="white"/>
<path d="M115.967 186.806C117.904 186.806 119.531 187.436 120.847 188.698C122.164 189.959 122.822 191.568 122.822 193.524C122.822 195.48 122.164 197.088 120.847 198.35C119.531 199.611 117.904 200.242 115.967 200.242H113.416V206H108.508V186.806H115.967ZM115.967 195.58C116.515 195.58 116.972 195.388 117.338 195.004C117.721 194.62 117.913 194.127 117.913 193.524C117.913 192.92 117.721 192.436 117.338 192.07C116.972 191.686 116.515 191.495 115.967 191.495H113.416V195.58H115.967ZM129.644 201.393H137.075V206H124.736V186.806H136.938V191.385H129.644V194.045H136.252V198.569H129.644V201.393ZM149.994 186.806H154.875V206H151.091L144.318 196.348V206H139.41V186.806H143.221L149.994 196.458V186.806ZM169.622 206L168.799 203.231H162.41L161.588 206H156.268L162.602 186.806H168.58L174.914 206H169.622ZM163.672 199.008H167.538L165.591 192.482L163.672 199.008ZM195.888 186.806V206H191.007V195.662L186.346 203.368H185.852L181.218 195.69V206H176.31V186.806H181.218L186.099 195.004L191.007 186.806H195.888ZM210.646 206L209.823 203.231H203.434L202.611 206H197.292L203.626 186.806H209.604L215.938 206H210.646ZM204.695 199.008H208.562L206.615 192.482L204.695 199.008ZM227.643 186.806H232.524V206H227.643V198.624H222.242V206H217.333V186.806H222.242V193.908H227.643V186.806ZM235.569 186.806H240.477V206H235.569V186.806Z" fill="white"/>
</g>
</g>
<defs>
<filter id="filter0_d_108_662" x="0.294931" y="0.0593309" width="351.586" height="351.586" filterUnits="userSpaceOnUse" color-interpolation-filters="sRGB">
<feFlood flood-opacity="0" result="BackgroundImageFix"/>
<feColorMatrix in="SourceAlpha" type="matrix" values="0 0 0 0 0 0 0 0 0 0 0 0 0 0 0 0 0 0 127 0" result="hardAlpha"/>
<feOffset dx="1.58813" dy="6.35253"/>
<feGaussianBlur stdDeviation="7.1466"/>
<feComposite in2="hardAlpha" operator="out"/>
<feColorMatrix type="matrix" values="0 0 0 0 0 0 0 0 0 0 0 0 0 0 0 0 0 0 0.1 0"/>
<feBlend mode="normal" in2="BackgroundImageFix" result="effect1_dropShadow_108_662"/>
<feBlend mode="normal" in="SourceGraphic" in2="effect1_dropShadow_108_662" result="shape"/>
</filter>
<clipPath id="clip0_108_662">
<rect x="13" y="8" width="323" height="323" rx="6" fill="white"/>
</clipPath>
</defs>
</svg>
