<svg width="391" height="141" viewBox="0 0 391 141" fill="none" xmlns="http://www.w3.org/2000/svg">
<g filter="url(#filter0_d_108_637)">
<g clip-path="url(#clip0_108_637)">
<rect x="13" y="8" width="362" height="112" rx="6" fill="#4A3299"/>
<path fill-rule="evenodd" clip-rule="evenodd" d="M92.0372 47.5544C118.822 42.9382 144.482 33.2001 170.251 41.7551C201.581 52.1562 236.959 67.2563 246.419 98.8072C255.887 130.386 231.925 160.561 214.233 188.452C198.18 213.759 180.738 240.879 151.64 248.227C123.296 255.384 97.0092 237.359 70.7107 224.692C42.3464 211.03 9.43648 201.58 -4.0976 173.214C-19.2734 141.407 -23.8359 99.5535 -2.37833 71.506C18.1077 44.7283 58.7755 53.2867 92.0372 47.5544Z" fill="#4F36A0"/>
<path fill-rule="evenodd" clip-rule="evenodd" d="M176.29 91.9834C241.839 79.716 304.956 23.5329 364.755 53.0482C429.832 85.1684 462.502 163.225 467.335 235.636C472.066 306.519 439.39 374.663 389.605 425.342C343.68 472.092 278.937 492.305 213.428 494.1C152.424 495.77 93.8078 474.608 47.6319 434.708C2.38955 395.614 -26.9716 341.334 -32.2854 281.778C-37.5827 222.406 -24.7405 157.809 19.3469 117.692C60.1068 80.602 122.122 102.121 176.29 91.9834Z" fill="#412798"/>
<path d="M79.4 56.8L73 60M73 60L72.2 60.4L65 64M73 60V65.6M73 60L57.8 52M65 64L50.6 56.8M65 64V79.2001M70.7248 50.2111L73.9248 51.8912C77.3664 53.6976 79.088 54.6 80.0448 56.224C81 57.8464 81 59.8672 81 63.904V64.0912C81 68.1312 81 70.152 80.0448 71.7744C79.088 73.3984 77.3664 74.3025 73.9248 76.1089L70.7248 77.7873C67.9152 79.2625 66.5104 80.0001 65 80.0001C63.4896 80.0001 62.0848 79.2641 59.2752 77.7889L56.0752 76.1089C52.6336 74.3025 50.912 73.4001 49.9552 71.776C49 70.1536 49 68.1328 49 64.096V63.9088C49 59.8688 49 57.848 49.9552 56.2256C50.912 54.6016 52.6336 53.6976 56.0752 51.8928L59.2752 50.2127C62.0848 48.7375 63.4896 47.9999 65 47.9999C66.5104 47.9999 67.9152 48.7359 70.7248 50.2111Z" stroke="white" stroke-width="2.4" stroke-linecap="round"/>
<path d="M114.336 74.4113C112.307 74.4113 110.625 73.9817 109.29 73.1225C107.956 72.2634 107.024 71.1026 106.494 69.6401L110.689 67.1997C111.402 68.8998 112.663 69.7498 114.473 69.7498C115.972 69.7498 116.721 69.3202 116.721 68.4611C116.721 67.8944 116.292 67.4374 115.433 67.09C115.067 66.9438 114.263 66.697 113.02 66.3497C111.265 65.8378 109.875 65.1249 108.852 64.2109C107.828 63.2786 107.316 61.9898 107.316 60.3446C107.316 58.5714 107.947 57.1364 109.208 56.0396C110.488 54.9427 112.078 54.3943 113.979 54.3943C115.588 54.3943 117.014 54.7691 118.257 55.5186C119.5 56.2681 120.451 57.3557 121.109 58.7816L116.996 61.1946C116.392 59.7687 115.396 59.0558 114.007 59.0558C113.422 59.0558 112.974 59.1746 112.663 59.4123C112.371 59.6499 112.224 59.9516 112.224 60.3172C112.224 60.7376 112.444 61.0941 112.883 61.3866C113.34 61.679 114.217 62.0172 115.515 62.4011C116.447 62.6753 117.197 62.9312 117.763 63.1689C118.33 63.4065 118.952 63.7539 119.628 64.2109C120.304 64.6496 120.807 65.2254 121.136 65.9384C121.465 66.633 121.63 67.4556 121.63 68.4062C121.63 70.2891 120.962 71.7607 119.628 72.8209C118.294 73.8812 116.529 74.4113 114.336 74.4113ZM123.414 54.8056H128.322V74H123.414V54.8056ZM136.249 69.3934H143.68V74H131.34V54.8056H143.543V59.3849H136.249V62.0447H142.857V66.569H136.249V69.3934ZM165.593 54.8056V74H160.712V63.6625L156.051 71.3676H155.557L150.923 63.6899V74H146.015V54.8056H150.923L155.804 63.0044L160.712 54.8056H165.593ZM180.351 74L179.528 71.2305H173.139L172.316 74H166.997L173.331 54.8056H179.309L185.643 74H180.351ZM174.4 67.0078H178.267L176.32 60.4817L174.4 67.0078ZM197.623 54.8056H202.504V74H198.72L191.947 64.348V74H187.038V54.8056H190.85L197.623 64.4577V54.8056Z" fill="white"/>
</g>
</g>
<defs>
<filter id="filter0_d_108_637" x="0.294931" y="0.0593309" width="390.586" height="140.586" filterUnits="userSpaceOnUse" color-interpolation-filters="sRGB">
<feFlood flood-opacity="0" result="BackgroundImageFix"/>
<feColorMatrix in="SourceAlpha" type="matrix" values="0 0 0 0 0 0 0 0 0 0 0 0 0 0 0 0 0 0 127 0" result="hardAlpha"/>
<feOffset dx="1.58813" dy="6.35253"/>
<feGaussianBlur stdDeviation="7.1466"/>
<feComposite in2="hardAlpha" operator="out"/>
<feColorMatrix type="matrix" values="0 0 0 0 0 0 0 0 0 0 0 0 0 0 0 0 0 0 0.1 0"/>
<feBlend mode="normal" in2="BackgroundImageFix" result="effect1_dropShadow_108_637"/>
<feBlend mode="normal" in="SourceGraphic" in2="effect1_dropShadow_108_637" result="shape"/>
</filter>
<clipPath id="clip0_108_637">
<rect x="13" y="8" width="362" height="112" rx="6" fill="white"/>
</clipPath>
</defs>
</svg>
