<svg width="391" height="141" viewBox="0 0 391 141" fill="none" xmlns="http://www.w3.org/2000/svg">
<g filter="url(#filter0_d_108_653)">
<g clip-path="url(#clip0_108_653)">
<rect x="13" y="8" width="362" height="112" rx="6" fill="#3FCFB5"/>
<path fill-rule="evenodd" clip-rule="evenodd" d="M142.415 86.1919C218.463 99.8056 309.902 64.8452 362.572 121.365C419.89 182.873 423.245 280.846 398.761 361.277C374.793 440.011 311.424 500.424 236.688 534.894C167.745 566.691 89.3092 562.017 17.6022 537.072C-49.173 513.844 -103.989 466.859 -137.638 404.68C-170.606 343.757 -180.136 272.902 -161.448 206.2C-142.818 139.704 -102.392 74.9935 -38.1637 49.627C21.2173 26.175 79.5695 74.9415 142.415 86.1919Z" fill="#40C9B1"/>
<path fill-rule="evenodd" clip-rule="evenodd" d="M171.834 103.019C248.758 95.8508 327.556 37.7628 393.396 78.1826C465.046 122.17 494.417 215.696 492.278 299.744C490.184 382.019 445.229 457.149 382.398 510.307C324.438 559.345 247.597 575.766 171.834 570.856C101.282 566.284 35.9178 535.627 -13.0995 484.678C-61.1259 434.759 -89.214 369.014 -88.9988 299.744C-88.7843 230.688 -67.0873 157.538 -11.9541 115.955C39.018 77.5112 108.265 108.943 171.834 103.019Z" fill="#38C4AB"/>
<path d="M70.0002 80.6666C79.2052 80.6666 86.6668 73.205 86.6668 64C86.6668 54.795 79.2052 47.3333 70.0002 47.3333C60.7952 47.3333 53.3335 54.795 53.3335 64C53.3335 73.205 60.7952 80.6666 70.0002 80.6666Z" stroke="white" stroke-width="3.33333" stroke-linejoin="round"/>
<path d="M70.0005 74C75.523 74 80.0005 69.5225 80.0005 64" stroke="white" stroke-width="3.33333" stroke-linecap="round" stroke-linejoin="round"/>
<path d="M114.336 74.4113C112.307 74.4113 110.625 73.9817 109.29 73.1225C107.956 72.2634 107.024 71.1026 106.494 69.6401L110.689 67.1997C111.402 68.8998 112.663 69.7498 114.473 69.7498C115.972 69.7498 116.721 69.3202 116.721 68.4611C116.721 67.8944 116.292 67.4374 115.433 67.09C115.067 66.9438 114.263 66.697 113.02 66.3497C111.265 65.8378 109.875 65.1249 108.852 64.2109C107.828 63.2786 107.316 61.9898 107.316 60.3446C107.316 58.5714 107.947 57.1364 109.208 56.0396C110.488 54.9427 112.078 54.3943 113.979 54.3943C115.588 54.3943 117.014 54.7691 118.257 55.5186C119.5 56.2681 120.451 57.3557 121.109 58.7816L116.996 61.1946C116.392 59.7687 115.396 59.0558 114.007 59.0558C113.422 59.0558 112.974 59.1746 112.663 59.4123C112.371 59.6499 112.224 59.9516 112.224 60.3172C112.224 60.7376 112.444 61.0941 112.883 61.3866C113.34 61.679 114.217 62.0172 115.515 62.4011C116.447 62.6753 117.197 62.9312 117.763 63.1689C118.33 63.4065 118.952 63.7539 119.628 64.2109C120.304 64.6496 120.807 65.2254 121.136 65.9384C121.465 66.633 121.63 67.4556 121.63 68.4062C121.63 70.2891 120.962 71.7607 119.628 72.8209C118.294 73.8812 116.529 74.4113 114.336 74.4113ZM123.414 54.8056H128.322V74H123.414V54.8056ZM141.349 74L138.004 67.803H136.249V74H131.34V54.8056H139.018C140.974 54.8056 142.61 55.4363 143.926 56.6976C145.261 57.9407 145.928 59.522 145.928 61.4414C145.928 62.5931 145.636 63.6533 145.051 64.6222C144.466 65.5728 143.671 66.3314 142.665 66.8981L146.614 74H141.349ZM136.249 59.33V63.635H138.963C139.567 63.6533 140.06 63.4614 140.444 63.0592C140.828 62.657 141.02 62.1361 141.02 61.4962C141.02 60.8564 140.828 60.3354 140.444 59.9333C140.06 59.5311 139.567 59.33 138.963 59.33H136.249ZM153.253 69.3934H160.684V74H148.344V54.8056H160.546V59.3849H153.253V62.0447H159.861V66.569H153.253V69.3934ZM173.027 74L169.682 67.803H167.927V74H163.019V54.8056H170.696C172.652 54.8056 174.288 55.4363 175.605 56.6976C176.939 57.9407 177.606 59.522 177.606 61.4414C177.606 62.5931 177.314 63.6533 176.729 64.6222C176.144 65.5728 175.349 66.3314 174.343 66.8981L178.292 74H173.027ZM167.927 59.33V63.635H170.642C171.245 63.6533 171.738 63.4614 172.122 63.0592C172.506 62.657 172.698 62.1361 172.698 61.4962C172.698 60.8564 172.506 60.3354 172.122 59.9333C171.738 59.5311 171.245 59.33 170.642 59.33H167.927ZM184.931 69.3934H192.362V74H180.023V54.8056H192.225V59.3849H184.931V62.0447H191.539V66.569H184.931V69.3934Z" fill="white"/>
</g>
</g>
<defs>
<filter id="filter0_d_108_653" x="0.294931" y="0.0593309" width="390.586" height="140.586" filterUnits="userSpaceOnUse" color-interpolation-filters="sRGB">
<feFlood flood-opacity="0" result="BackgroundImageFix"/>
<feColorMatrix in="SourceAlpha" type="matrix" values="0 0 0 0 0 0 0 0 0 0 0 0 0 0 0 0 0 0 127 0" result="hardAlpha"/>
<feOffset dx="1.58813" dy="6.35253"/>
<feGaussianBlur stdDeviation="7.1466"/>
<feComposite in2="hardAlpha" operator="out"/>
<feColorMatrix type="matrix" values="0 0 0 0 0 0 0 0 0 0 0 0 0 0 0 0 0 0 0.1 0"/>
<feBlend mode="normal" in2="BackgroundImageFix" result="effect1_dropShadow_108_653"/>
<feBlend mode="normal" in="SourceGraphic" in2="effect1_dropShadow_108_653" result="shape"/>
</filter>
<clipPath id="clip0_108_653">
<rect x="13" y="8" width="362" height="112" rx="6" fill="white"/>
</clipPath>
</defs>
</svg>
