<svg width="391" height="141" viewBox="0 0 391 141" fill="none" xmlns="http://www.w3.org/2000/svg">
<g filter="url(#filter0_d_108_644)">
<g clip-path="url(#clip0_108_644)">
<rect x="13" y="8" width="362" height="112" rx="6" fill="#973299"/>
<path fill-rule="evenodd" clip-rule="evenodd" d="M71.3322 501.387C-5.29867 491.573 -94.8856 531.039 -150.302 477.209C-210.609 418.629 -218.834 320.945 -198.381 239.395C-178.36 159.566 -118.075 96.075 -45.1462 57.9302C22.1289 22.7426 100.7 23.5091 173.56 44.8551C241.408 64.733 298.494 108.932 335.194 169.361C371.152 228.568 384.195 298.861 368.849 366.411C353.55 433.751 316.393 500.392 253.506 528.923C195.365 555.3 134.659 509.497 71.3322 501.387Z" fill="#9B3B9D"/>
<path fill-rule="evenodd" clip-rule="evenodd" d="M206.834 86.019C283.758 78.8508 362.556 20.7628 428.396 61.1826C500.046 105.17 529.417 198.696 527.278 282.744C525.184 365.019 480.229 440.149 417.398 493.307C359.438 542.345 282.597 558.766 206.834 553.856C136.282 549.284 70.9178 518.627 21.9005 467.678C-26.1259 417.759 -54.214 352.014 -53.9988 282.744C-53.7843 213.688 -32.0873 140.538 23.0459 98.9553C74.018 60.5112 143.265 91.9427 206.834 86.019Z" fill="#8B1F8D"/>
<path d="M52.3325 64.3399C52.3325 60.5249 52.3325 58.6182 53.1992 57.0382C54.0625 55.4566 55.6442 54.4766 58.8059 52.5132L62.1392 50.4449C65.4809 48.3699 67.1525 47.3332 68.9992 47.3332C70.8459 47.3332 72.5159 48.3699 75.8592 50.4449L79.1925 52.5132C82.3542 54.4766 83.9359 55.4566 84.8009 57.0382C85.6659 58.6182 85.6659 60.5249 85.6659 64.3382V66.8749C85.6659 73.3749 85.6659 76.6266 83.7125 78.6466C81.7609 80.6666 78.6175 80.6666 72.3325 80.6666H65.6659C59.3809 80.6666 56.2375 80.6666 54.2859 78.6466C52.3325 76.6266 52.3325 73.3766 52.3325 66.8749V64.3399Z" stroke="white" stroke-width="2.5"/>
<path d="M69 69.0001V74.0001" stroke="white" stroke-width="2.5" stroke-linecap="round"/>
<path d="M113.336 74.9113C111.307 74.9113 109.625 74.4817 108.29 73.6225C106.956 72.7634 106.024 71.6026 105.494 70.1401L109.689 67.6997C110.402 69.3998 111.663 70.2498 113.473 70.2498C114.972 70.2498 115.721 69.8202 115.721 68.9611C115.721 68.3944 115.292 67.9374 114.433 67.59C114.067 67.4438 113.263 67.197 112.02 66.8497C110.265 66.3378 108.875 65.6249 107.852 64.7109C106.828 63.7786 106.316 62.4898 106.316 60.8446C106.316 59.0714 106.947 57.6364 108.208 56.5396C109.488 55.4427 111.078 54.8943 112.979 54.8943C114.588 54.8943 116.014 55.2691 117.257 56.0186C118.5 56.7681 119.451 57.8557 120.109 59.2816L115.996 61.6946C115.392 60.2687 114.396 59.5558 113.007 59.5558C112.422 59.5558 111.974 59.6746 111.663 59.9123C111.371 60.1499 111.224 60.4516 111.224 60.8172C111.224 61.2376 111.444 61.5941 111.883 61.8866C112.34 62.179 113.217 62.5172 114.515 62.9011C115.447 63.1753 116.197 63.4312 116.763 63.6689C117.33 63.9065 117.952 64.2539 118.628 64.7109C119.304 65.1496 119.807 65.7254 120.136 66.4384C120.465 67.133 120.63 67.9556 120.63 68.9062C120.63 70.7891 119.962 72.2607 118.628 73.3209C117.294 74.3812 115.529 74.9113 113.336 74.9113ZM122.414 55.3056H127.322V74.5H122.414V55.3056ZM143.502 55.3056V60.0494H138.759V74.5H133.85V60.0494H129.106V55.3056H143.502ZM155.625 74.5L154.803 71.7305H148.414L147.591 74.5H142.272L148.606 55.3056H154.583L160.918 74.5H155.625ZM149.675 67.5078H153.541L151.595 60.9817L149.675 67.5078ZM172.898 55.3056H177.778V74.5H173.994L167.221 64.848V74.5H162.313V55.3056H166.125L172.898 64.9577V55.3056ZM192.525 74.5L191.703 71.7305H185.314L184.491 74.5H179.171L185.506 55.3056H191.483L197.817 74.5H192.525ZM186.575 67.5078H190.441L188.494 60.9817L186.575 67.5078Z" fill="white"/>
</g>
</g>
<defs>
<filter id="filter0_d_108_644" x="0.294931" y="0.0593309" width="390.586" height="140.586" filterUnits="userSpaceOnUse" color-interpolation-filters="sRGB">
<feFlood flood-opacity="0" result="BackgroundImageFix"/>
<feColorMatrix in="SourceAlpha" type="matrix" values="0 0 0 0 0 0 0 0 0 0 0 0 0 0 0 0 0 0 127 0" result="hardAlpha"/>
<feOffset dx="1.58813" dy="6.35253"/>
<feGaussianBlur stdDeviation="7.1466"/>
<feComposite in2="hardAlpha" operator="out"/>
<feColorMatrix type="matrix" values="0 0 0 0 0 0 0 0 0 0 0 0 0 0 0 0 0 0 0.1 0"/>
<feBlend mode="normal" in2="BackgroundImageFix" result="effect1_dropShadow_108_644"/>
<feBlend mode="normal" in="SourceGraphic" in2="effect1_dropShadow_108_644" result="shape"/>
</filter>
<clipPath id="clip0_108_644">
<rect x="13" y="8" width="362" height="112" rx="6" fill="white"/>
</clipPath>
</defs>
</svg>
